<?xml version="1.0" encoding="UTF-8"?>
<svg id="Camada_2" data-name="Camada 2" xmlns="http://www.w3.org/2000/svg"  fill="#ffff"
 viewBox="0 0 519.22 83.37">
  <defs>
    <style>
      .cls-1 {
        stroke-width: 0px;
      }

    </style>
  </defs>
  <g id="Camada_3" data-name="Camada 3">
    <path class="cls-1" d="m.05,41.41L15.39.51c.12-.31.41-.51.74-.51h13.95c.55,0,.93.55.74,1.07l-15.13,40.34c-.07.18-.07.38,0,.55l15.13,40.34c.19.52-.19,1.07-.74,1.07h-13.95c-.33,0-.62-.2-.74-.51L.05,41.96c-.07-.18-.07-.38,0-.55Z"/>
    <path class="cls-1" d="m519.17,41.41L503.84.51c-.12-.31-.41-.51-.74-.51h-13.95c-.55,0-.93.55-.74,1.07l15.13,40.34c.07.18.07.38,0,.55l-15.13,40.34c-.19.52.19,1.07.74,1.07h13.95c.33,0,.62-.2.74-.51l15.34-40.89c.07-.18.07-.38,0-.55Z"/>
    <g>
      <path class="cls-1" d="m73.77,62.29h-9.19l-5.73-22.4h-.18l-5.71,22.4h-9.07l-8.42-31.68h8.69l4.79,23.5h.18l5.62-23.5h8.28l5.64,23.5h.18l4.82-23.5h8.51l-8.39,31.68Z"/>
      <path class="cls-1" d="m120.07,62.29h-9.19l-5.73-22.4h-.18l-5.71,22.4h-9.07l-8.42-31.68h8.69l4.79,23.5h.18l5.62-23.5h8.28l5.64,23.5h.18l4.82-23.5h8.51l-8.39,31.68Z"/>
      <path class="cls-1" d="m166.37,62.29h-9.19l-5.73-22.4h-.18l-5.71,22.4h-9.07l-8.42-31.68h8.69l4.79,23.5h.18l5.62-23.5h8.28l5.64,23.5h.18l4.82-23.5h8.51l-8.39,31.68Z"/>
      <path class="cls-1" d="m173.92,57.88c0-2.66,2.1-4.76,4.76-4.76s4.76,2.1,4.76,4.76-2.13,4.76-4.76,4.76-4.76-2.13-4.76-4.76Z"/>
      <path class="cls-1" d="m187.15,53.18c0-5.76,4.43-9.1,12.33-9.58l7.98-.47v-2.1c0-2.96-2.07-4.67-5.32-4.67s-5.26,1.6-5.67,3.93h-7.89c.33-6.15,5.56-10.37,13.95-10.37s13.42,4.2,13.42,10.58v21.78h-8.33v-4.85h-.18c-1.77,3.37-5.71,5.35-9.67,5.35-6.03,0-10.61-3.9-10.61-9.61Zm20.31-2.51v-2.31l-6.68.41c-3.22.24-5.05,1.68-5.05,3.93,0,2.36,1.95,3.84,4.88,3.84,3.75,0,6.86-2.45,6.86-5.88Z"/>
      <path class="cls-1" d="m219.8,64.53h8.45c.68,2.19,3.16,3.69,6.44,3.69,4.46,0,6.95-2.48,6.95-6.15v-5.56h-.18c-1.48,3.37-5.2,5.67-9.78,5.67-7.74,0-12.86-5.97-12.86-15.87s4.97-16.23,13-16.23c4.55,0,8.13,2.39,9.78,6.03h.15v-5.53h8.51v31.24c0,7.57-6.33,12.38-15.81,12.38-8.33,0-13.98-4.05-14.66-9.69Zm21.87-18.15c0-5.7-2.75-9.37-7.06-9.37s-6.95,3.61-6.95,9.37,2.66,9.16,6.95,9.16,7.06-3.43,7.06-9.16Z"/>
      <path class="cls-1" d="m254.37,30.6h8.33v5.71h.18c1.12-4.02,3.81-6.21,7.54-6.21,1,0,1.86.15,2.45.33v7.6c-.71-.3-1.89-.5-3.13-.5-4.26,0-6.74,2.6-6.74,7.06v17.7h-8.63v-31.68Z"/>
      <path class="cls-1" d="m272.68,46.41c0-10.26,6.21-16.49,15.69-16.49s15.69,6.21,15.69,16.49-6.12,16.55-15.69,16.55-15.69-6.15-15.69-16.55Zm22.61.03c0-6.3-2.72-9.93-6.92-9.93s-6.95,3.64-6.95,9.93,2.69,9.93,6.95,9.93,6.92-3.58,6.92-9.93Z"/>
      <path class="cls-1" d="m306.84,22.65c0-2.51,2.01-4.46,4.61-4.46s4.61,1.95,4.61,4.46-2.01,4.46-4.61,4.46-4.61-1.98-4.61-4.46Zm.3,7.95h8.63v31.68h-8.63v-31.68Z"/>
      <path class="cls-1" d="m318.83,46.41c0-10.26,6.21-16.49,15.69-16.49s15.69,6.21,15.69,16.49-6.12,16.55-15.69,16.55-15.69-6.15-15.69-16.55Zm22.61.03c0-6.3-2.72-9.93-6.92-9.93s-6.95,3.64-6.95,9.93,2.69,9.93,6.95,9.93,6.92-3.58,6.92-9.93Z"/>
      <path class="cls-1" d="m353.1,57.88c0-2.66,2.1-4.76,4.76-4.76s4.76,2.1,4.76,4.76-2.13,4.76-4.76,4.76-4.76-2.13-4.76-4.76Z"/>
      <path class="cls-1" d="m387,42.39c-.5-3.34-2.72-5.7-6.27-5.7-4.26,0-6.92,3.61-6.92,9.72s2.66,9.78,6.95,9.78c3.46,0,5.7-2.07,6.24-5.53h8.04c-.44,7.48-6.03,12.29-14.36,12.29-9.55,0-15.61-6.21-15.61-16.55s6.06-16.49,15.55-16.49c8.57,0,14.01,5.29,14.39,12.47h-8.01Z"/>
      <path class="cls-1" d="m396.53,46.41c0-10.26,6.21-16.49,15.69-16.49s15.69,6.21,15.69,16.49-6.12,16.55-15.69,16.55-15.69-6.15-15.69-16.55Zm22.61.03c0-6.3-2.72-9.93-6.92-9.93s-6.95,3.64-6.95,9.93,2.69,9.93,6.95,9.93,6.92-3.58,6.92-9.93Z"/>
      <path class="cls-1" d="m430.83,30.6h8.33v5.73h.18c1.33-3.81,4.73-6.33,9.04-6.33,4.58,0,7.77,2.36,8.84,6.5h.18c1.42-3.99,5.2-6.5,9.84-6.5,6.21,0,10.38,4.26,10.38,10.64v21.63h-8.63v-19.48c0-3.67-1.83-5.67-5.17-5.67s-5.44,2.39-5.44,5.91v19.24h-8.31v-19.74c0-3.4-1.92-5.41-5.11-5.41s-5.5,2.48-5.5,6.03v19.12h-8.63v-31.68Z"/>
    </g>
  </g>
</svg>